<svg width="1688" height="314" viewBox="0 0 1688 314" fill="none" xmlns="http://www.w3.org/2000/svg">
<path d="M156.864 313.729C243.498 313.729 313.729 243.498 313.729 156.864C313.729 70.2306 243.498 0 156.864 0C70.2306 0 0 70.2306 0 156.864C0 243.498 70.2306 313.729 156.864 313.729Z" fill="#FF0000"/>
<path d="M156.863 60.9233C103.877 60.9233 60.9241 103.876 60.9241 156.862C60.9241 209.848 103.877 252.801 156.863 252.801C209.849 252.801 252.802 209.848 252.802 156.862C252.802 103.876 209.849 60.9233 156.863 60.9233ZM156.863 240.041C110.926 240.041 73.6844 202.799 73.6844 156.862C73.6844 110.925 110.926 73.6837 156.863 73.6837C202.8 73.6837 240.041 110.925 240.041 156.862C240.041 202.799 202.8 240.041 156.863 240.041Z" fill="white"/>
<path d="M127.576 202.773V110.453L207.811 156.417L127.576 202.773Z" fill="white"/>
<path d="M425.385 50.5413L402.538 158.93L379.367 50.5413H344.556L384.511 196.158V267.332H419.633V196.779L460.506 50.5413H425.385Z" fill="white"/>
<path d="M501.825 105.242C480.922 105.242 451.472 111.534 451.472 171.974C451.472 171.974 451.472 188.083 451.472 197.913C451.472 233.169 455.753 268.925 500.069 268.925C544.386 268.925 550.422 238.962 550.422 196.414V179.036C550.422 146.791 548.41 105.242 501.825 105.242ZM514.342 217.546C514.342 233.831 511.655 245.417 500.961 245.417C490.253 245.417 487.822 231.481 487.822 217.722C487.822 203.962 487.822 181.966 487.822 158.943C487.822 135.921 494.196 129.763 500.961 129.763C513.924 129.763 514.342 147.722 514.342 157.296C514.342 166.856 514.342 201.262 514.342 217.546Z" fill="white"/>
<path d="M629.742 234.165C629.742 234.165 625.961 244.4 614.551 244.4C606.665 244.4 604.316 236.852 604.316 226.265C604.316 215.693 604.572 108.506 604.572 108.506H568.816C568.816 108.506 568.816 199.908 568.816 223.079C568.816 246.25 572.084 268.908 599.279 268.908C626.474 268.908 634.279 246.493 634.279 246.493L637.803 267.315H665.255V108.519H629.755L629.742 234.165Z" fill="white"/>
<path d="M812.544 234.165C812.544 234.165 808.764 244.4 797.354 244.4C789.468 244.4 787.118 236.852 787.118 226.265C787.118 215.693 787.375 108.506 787.375 108.506H751.619C751.619 108.506 751.619 199.908 751.619 223.079C751.619 246.25 754.887 268.908 782.082 268.908C809.277 268.908 817.081 246.493 817.081 246.493L820.606 267.315H848.057V108.519H812.558L812.544 234.165Z" fill="white"/>
<path d="M1373.55 234.165C1373.55 234.165 1369.77 244.4 1358.36 244.4C1350.48 244.4 1348.37 236.852 1348.37 226.265C1348.37 215.693 1348.37 108.506 1348.37 108.506H1312.61C1312.61 108.506 1312.61 199.908 1312.61 223.079C1312.61 246.25 1315.88 268.908 1343.08 268.908C1370.27 268.908 1378.08 246.493 1378.08 246.493L1381.6 267.315H1409.05V108.519H1373.55V234.165Z" fill="white"/>
<path d="M762.19 50.5413H656.691V78.8031H691.691V267.332H726.934V78.8031H762.19V50.5413Z" fill="white"/>
<path d="M936.676 105.5C921.175 105.5 909.792 115.343 903.445 127.334V41.9547H869.202V267.32H899.084L902.986 251.157C902.986 251.157 912.506 268.9 933.908 268.9C955.311 268.9 969.408 251.778 969.408 204.949C969.408 204.949 970.285 170.584 969.408 169.693C969.421 137.475 965.384 105.5 936.676 105.5ZM933.665 204.625C933.665 239.206 926.117 243.906 917.88 243.906C909.657 243.906 904.121 236.02 904.121 236.02V145.374C904.958 139.662 912.844 130.602 919.514 130.602C932.045 130.602 933.665 146.549 933.665 170.044C933.665 175.243 933.665 183.979 933.665 204.625Z" fill="white"/>
<path d="M1033.2 105.242C1013.2 105.242 985.004 111.534 985.004 171.974C985.004 171.974 985.004 188.083 985.004 197.913C985.004 233.169 989.095 268.925 1031.51 268.925C1065.37 268.925 1079.7 252.816 1078.74 220.463C1078.71 219.666 1047.47 218.059 1047.47 218.059C1047.44 234.034 1046.15 245.417 1033.63 245.417C1020.95 245.417 1019.79 231.481 1019.79 217.722C1019.79 212.672 1019.79 206.501 1019.79 199.587H1079.65L1079.7 178.766C1079.71 146.575 1081.15 105.242 1033.2 105.242ZM1019.79 178.766C1019.79 172.365 1019.79 165.695 1019.79 158.93C1019.79 135.907 1023.64 129.574 1032.83 129.574C1047.94 129.574 1046.12 147.709 1046.12 157.269C1046.12 161.212 1046.35 169.381 1046.62 178.752L1019.79 178.766Z" fill="white"/>
<path d="M1656.99 208.147C1657.83 234.167 1653.31 245.415 1643.45 245.415C1633.59 245.415 1630.81 236.017 1630.81 218.058C1630.81 211.684 1630.81 184.152 1630.81 159.644C1630.81 135.136 1635.69 129.6 1642.9 129.6C1654.48 129.6 1655.99 143.197 1655.99 156.444C1655.99 160.116 1655.99 168.556 1655.99 168.556L1686.71 166.368C1689.9 118.527 1673.12 105.267 1643.03 105.267C1623.03 105.267 1594.84 111.56 1594.84 171.999C1594.84 171.999 1594.84 188.108 1594.84 197.938C1594.84 233.195 1598.93 268.951 1641.34 268.951C1686.11 268.951 1687.89 240.918 1687.89 210.023L1656.99 208.147Z" fill="white"/>
<path d="M1226.67 112.709C1222.67 132.991 1212.7 184.545 1209.37 219.464H1206.71C1206.05 188.866 1177.39 50.5413 1177.39 50.5413H1126.99V267.332H1158.15V88.4307L1192.75 267.332H1223.68L1258.28 89.43V267.332H1289.54V50.5413H1239.64C1239.64 50.5413 1230.65 92.4141 1226.67 112.709Z" fill="white"/>
<path d="M1483.93 175.079C1467.64 162.319 1459.76 157.458 1459.76 143.685C1459.76 135.799 1464.48 130.587 1474.12 130.587C1482.59 130.587 1487.72 135.354 1487.68 161.009L1517.55 159.808C1517.55 159.808 1517.72 147.034 1516.35 136.15C1514.97 125.28 1507.89 105.769 1474.23 105.769C1451.61 105.769 1429 113.708 1429 147.884C1429 172.568 1441.6 184.316 1465.25 202.95C1484.41 217.452 1488.99 223.744 1488.99 231.468C1488.99 239.192 1485.3 245.903 1474.56 245.903C1463.81 245.903 1458.11 234.83 1459.28 218.208L1429.01 218.37C1429.01 218.37 1427.57 237.841 1431.59 248.077C1435.61 258.312 1444.58 270.073 1473.17 270.073C1501.75 270.073 1519.55 257.812 1519.55 227.944C1519.51 198.075 1500.2 187.84 1483.93 175.079Z" fill="white"/>
<path d="M1572.72 108.521H1538.98V266.398H1572.72V108.521Z" fill="white"/>
<path d="M1560.39 46.0834H1553.03C1544.53 46.0834 1537.63 52.9834 1537.63 61.4903V74.2506C1537.63 82.7575 1544.53 89.6576 1553.03 89.6576H1560.39C1568.9 89.6576 1575.8 82.7575 1575.8 74.2506V61.4903C1575.79 52.9834 1568.9 46.0834 1560.39 46.0834Z" fill="white"/>
</svg>
